<?xml version="1.0" encoding="UTF-8"?>
<svg class="iconify iconify--logos" width="31.88" height="32" aria-hidden="true" role="img" version="1.1" viewBox="0 0 256 257" xmlns="http://www.w3.org/2000/svg">
 <path d="m-0.018121 128.5c0-70.691 57.327-128.02 128.02-128.02 70.691 0 128.02 57.327 128.02 128.02 0 70.691-57.327 128.02-128.02 128.02-70.691 0-128.02-57.327-128.02-128.02z" fill="#fabc3d" stroke-width=".51599"/>
 <path d="m120.97 109.89c0 1.486-1.1888 2.7491-2.7491 2.7491h-12.037c-1.486 0-2.7491-1.1888-2.7491-2.7491v-12.037c0-1.486 1.1888-2.7491 2.7491-2.7491h12.037c1.486 0 2.7491 1.1888 2.7491 2.7491z" fill="#000000" stroke-width=".74299"/>
 <path d="m120.97 159.23c0 1.486-1.1888 2.7491-2.7491 2.7491h-12.037c-1.486 0-2.7491-1.1888-2.7491-2.7491v-12.037c0-1.486 1.1888-2.7491 2.7491-2.7491h12.037c1.486 0 2.7491 1.1888 2.7491 2.7491z" fill="#000000" stroke-width=".74299"/>
 <path d="m60.57 204.49v-132.75h-8.9715c-2.7305 0-4.9408-0.91015-6.7612-2.8605-1.8203-1.8203-2.8605-4.1607-2.8605-6.7612 0-2.7305 0.91016-4.9408 2.8605-6.7612 1.8203-1.8203 4.1607-2.8605 6.7612-2.8605h28.214v151.99z" fill="#000000" stroke-width="1.3002"/>
 <path d="m213.82 71.75v36.016c0 8.4514-2.0444 15.212-6.1331 20.413 4.191 5.981 6.3375 12.482 6.3375 19.503v37.575c0 5.3309-1.5333 9.7517-4.4976 13.522-2.9643 3.7706-6.6442 5.721-10.835 5.721h-53.458c-2.1466 0-3.8843-0.91014-5.3154-2.8605-1.431-1.8203-2.2488-4.1607-2.2488-6.7612 0-2.7305 0.71553-4.9409 2.2488-6.7612 1.4311-1.8203 3.271-2.8605 5.3154-2.8605h53.254v-37.575c0-2.7304-0.71553-4.9408-2.2488-6.8912-1.5333-1.9503-3.271-2.8605-5.3154-2.8605h-30.461c-2.1466 0-3.8843-0.91014-5.3153-2.7305-1.431-1.8203-2.2488-4.1607-2.2488-6.8912 0-2.7305 0.71551-4.9409 2.2488-6.7612 1.431-1.8203 3.271-2.8605 5.3153-2.8605h30.562c2.0444 0 3.7821-0.91013 5.3153-2.8605 1.5333-1.8203 2.2488-4.1607 2.2488-6.7611v-37.185h-53.97c-2.1466 0-3.8843-0.91016-5.3154-2.8605-1.431-1.8203-2.2488-4.1607-2.2488-6.7612 0-2.7305 0.71553-4.9408 2.2488-6.7612 1.4311-1.8203 3.271-2.8605 5.3154-2.8605h53.97c4.1909 0 7.7686 1.9503 10.733 5.721 2.9643 3.6406 4.4976 8.0614 4.4976 13.392z" fill="#000000" stroke-width="1.1528"/>
</svg>
